<?xml version="1.0" standalone="no"?>
<!-- Generator: Adobe Fireworks 10, Export SVG Extension by Aaron Beall (http://fireworks.abeall.com) . Version: 0.6.1  -->
<!DOCTYPE svg PUBLIC "-//W3C//DTD SVG 1.1//EN" "http://www.w3.org/Graphics/SVG/1.1/DTD/svg11.dtd">
<svg id="Untitled-Page%201" viewBox="0 0 14 14" style="background-color:#ffffff00" version="1.1"
	xmlns="http://www.w3.org/2000/svg" xmlns:xlink="http://www.w3.org/1999/xlink" xml:space="preserve"
	x="0px" y="0px" width="14px" height="14px"
>
	<g id="Layer%201">
		<path d="M 9.8108 7.134 L 9.6311 6.2597 L 10.8881 5.8919 L 10.1468 4.2551 L 9.0966 4.5624 L 8.3507 2 L 6.2821 2.6053 L 7.044 5.163 L 5.6915 5.5587 L 4.9297 3.001 L 2.8929 3.597 L 3.6548 6.1547 L 2 6.6389 L 2.7413 8.2757 L 4.1733 7.8567 L 4.3689 8.7263 L 2.0936 9.3921 L 2.8348 11.029 L 4.8875 10.4283 L 5.6016 13 L 7.6542 12.3994 L 6.9242 9.8324 L 8.2608 9.4413 L 8.9908 12.0083 L 11.0593 11.403 L 10.3293 8.836 L 12 8.3472 L 11.2587 6.7103 L 9.8108 7.134 L 9.8108 7.134 ZM 7.7581 7.7346 L 6.4057 8.1304 L 6.21 7.2607 L 7.5466 6.8696 L 7.7581 7.7346 L 7.7581 7.7346 Z" fill="#d98055"/>
	</g>
</svg>