<?xml version="1.0" standalone="no"?>
<!-- Generator: Adobe Fireworks 10, Export SVG Extension by Aaron Beall (http://fireworks.abeall.com) . Version: 0.6.1  -->
<!DOCTYPE svg PUBLIC "-//W3C//DTD SVG 1.1//EN" "http://www.w3.org/Graphics/SVG/1.1/DTD/svg11.dtd">
<svg id="Untitled-Page%201" viewBox="0 0 9 11" style="background-color:#ffffff00" version="1.1"
	xmlns="http://www.w3.org/2000/svg" xmlns:xlink="http://www.w3.org/1999/xlink" xml:space="preserve"
	x="0px" y="0px" width="9px" height="11px"
>
	<g id="Layer%201">
		<g>
			<path d="M 1.9688 4.875 L 6.9688 4.875 L 7 6.3125 L 2 6.3125 L 1.9688 4.875 Z" fill="#d98055"/>
			<path d="M 2 7 L 7 7 L 6.9688 8.2813 L 1.9688 8.2813 L 2 7 Z" fill="#d98055"/>
			<path d="M 0.0313 9.7188 L 9.0313 9.7188 L 9 11 L 0 11 L 0.0313 9.7188 Z" fill="#d98055"/>
			<path d="M 7.7813 4 L 9 4 L 9 11 L 7.7813 11 L 7.7813 4 Z" fill="#d98055"/>
			<path d="M 0 0 L 6 0 L 6.0313 1.3125 L 0.0313 1.3125 L 0 0 Z" fill="#d98055"/>
			<path d="M 0 1 L 1.3438 1 L 1.3438 10 L 0 10 L 0 1 Z" fill="#d98055"/>
			<path d="M 6 0 L 7 0 L 7 4 L 6 4 L 6 0 Z" fill="#d98055"/>
			<path d="M 6 3 L 9 3 L 9 4 L 6 4 L 6 3 Z" fill="#d98055"/>
			<path d="M 6 2 L 7 1 L 9 3 L 8 4 L 6 2 Z" fill="#d98055"/>
		</g>
	</g>
</svg>