<?xml version="1.0" standalone="no"?>
<!-- Generator: Adobe Fireworks 10, Export SVG Extension by Aaron Beall (http://fireworks.abeall.com) . Version: 0.6.1  -->
<!DOCTYPE svg PUBLIC "-//W3C//DTD SVG 1.1//EN" "http://www.w3.org/Graphics/SVG/1.1/DTD/svg11.dtd">
<svg id="Untitled-Page%201" viewBox="0 0 27 27" style="background-color:#ffffff00" version="1.1"
	xmlns="http://www.w3.org/2000/svg" xmlns:xlink="http://www.w3.org/1999/xlink" xml:space="preserve"
	x="0px" y="0px" width="27px" height="27px"
>
	<g id="Layer%201">
		<path d="M 7 18 L 20 18 L 20 19 L 7 19 L 7 18 Z" fill="#d98055"/>
		<path d="M 8 17 L 19 17 L 19 18 L 8 18 L 8 17 Z" fill="#d98055"/>
		<path d="M 9 16 L 18 16 L 18 17 L 9 17 L 9 16 Z" fill="#d98055"/>
		<path d="M 16 13 L 17 13 L 17 16 L 16 16 L 16 13 Z" fill="#d98055"/>
		<path d="M 14 13 L 15 13 L 15 16 L 14 16 L 14 13 Z" fill="#d98055"/>
		<path d="M 12 13 L 13 13 L 13 16 L 12 16 L 12 13 Z" fill="#d98055"/>
		<path d="M 10 13 L 11 13 L 11 16 L 10 16 L 10 13 Z" fill="#d98055"/>
		<path d="M 19 13 L 8 13 L 13.5781 8.9844 L 19 13 Z" stroke="#ffffff00" stroke-width="1" fill="#d98055"/>
	</g>
</svg>