<?xml version="1.0" encoding="utf-8"?>
<!-- Generator: Adobe Illustrator 16.0.0, SVG Export Plug-In . SVG Version: 6.00 Build 0)  -->
<!DOCTYPE svg PUBLIC "-//W3C//DTD SVG 1.1//EN" "http://www.w3.org/Graphics/SVG/1.1/DTD/svg11.dtd">
<svg version="1.1" id="Untitled-1.fw-Page_x25_201_x25_20Copy"
	 xmlns="http://www.w3.org/2000/svg" xmlns:xlink="http://www.w3.org/1999/xlink" x="0px" y="0px" width="27px" height="27px"
	 viewBox="0 0 27 27" enable-background="new 0 0 27 27" xml:space="preserve">
<path fill="none" d="z"/>
<g id="Layer_x25_201" opacity="0.5">
	<g>
		<path fill="#0E1B49" d="M13.5,16.67l0.864,0.078l-0.002,1.88l-0.864-0.078L13.5,16.67z"/>
		<path fill="#0E1B49" d="M13.315,7.703l1.021,0.035l0.028,1.641l-1.021-0.035L13.315,7.703z"/>
		<path fill="#0E1B49" d="M16,10.5l-0.469,1.094c-0.75-0.5-1.031-1.5-1.781-1.5c-1.25,0-1.25,0.75-1.25,1c0,1,3.5,1.156,3.5,3.656
			C16,16.5,14.75,17,13.5,17c-1,0-1.25,0-2.5-1.25V14.5l1.063,0.125c0.25,1,0.781,1.406,1.281,1.406c1.25,0,1.5-1,1.5-1.25
			c0-2.5-3.594-1.281-3.594-3.531c0-1.5,0.5-2.25,2.5-2.25C14.75,9,16,9.5,16,10.5z"/>
	</g>
</g>
<path fill="none" d="z"/>
</svg>
