<?xml version="1.0" standalone="no"?>
<!-- Generator: Adobe Fireworks 10, Export SVG Extension by Aaron Beall (http://fireworks.abeall.com) . Version: 0.6.1  -->
<!DOCTYPE svg PUBLIC "-//W3C//DTD SVG 1.1//EN" "http://www.w3.org/Graphics/SVG/1.1/DTD/svg11.dtd">
<svg id="Untitled-Page%201" viewBox="0 0 27 27" style="background-color:#ffffff00" version="1.1"
	xmlns="http://www.w3.org/2000/svg" xmlns:xlink="http://www.w3.org/1999/xlink" xml:space="preserve"
	x="0px" y="0px" width="27px" height="27px"
>
	<g id="Layer%201">
		<g>
			<path d="M 7 17 L 20 17 L 20 18 L 7 18 L 7 17 Z" stroke="#ffffff00" stroke-width="1" fill="#1f2050"/>
			<path d="M 19 10 L 20 10 L 20 17 L 19 17 L 19 10 Z" stroke="#ffffff00" stroke-width="1" fill="#1f2050"/>
			<path d="M 7 9 L 20 9 L 20 10 L 7 10 L 7 9 Z" stroke="#ffffff00" stroke-width="1" fill="#1f2050"/>
			<path d="M 7 10 L 8 10 L 8 17 L 7 17 L 7 10 Z" stroke="#ffffff00" stroke-width="1" fill="#1f2050"/>
			<path d="M 8 15 L 10 17 L 8 17 L 8 15 Z" stroke="#ffffff00" stroke-width="1" fill="#1f2050"/>
			<path d="M 8 12 L 10 10 L 8 10 L 8 12 Z" stroke="#ffffff00" stroke-width="1" fill="#1f2050"/>
			<path d="M 19 12 L 17 10 L 19 10 L 19 12 Z" stroke="#ffffff00" stroke-width="1" fill="#1f2050"/>
			<path d="M 19 17 L 17 17 L 19 15 L 19 17 Z" stroke="#ffffff00" stroke-width="1" fill="#1f2050"/>
			<path id="Ellipse" d="M 11 13.5 C 11 11.567 12.1192 10 13.5 10 C 14.8808 10 16 11.567 16 13.5 C 16 15.433 14.8808 17 13.5 17 C 12.1192 17 11 15.433 11 13.5 Z" stroke="#ffffff00" stroke-width="1" fill="#1f2050"/>
		</g>
	</g>
</svg>