<?xml version="1.0" standalone="no"?>
<!-- Generator: Adobe Fireworks 10, Export SVG Extension by Aaron Beall (http://fireworks.abeall.com) . Version: 0.6.1  -->
<!DOCTYPE svg PUBLIC "-//W3C//DTD SVG 1.1//EN" "http://www.w3.org/Graphics/SVG/1.1/DTD/svg11.dtd">
<svg id="Untitled-Page%201" viewBox="0 0 27 27" style="background-color:#ffffff00" version="1.1"
	xmlns="http://www.w3.org/2000/svg" xmlns:xlink="http://www.w3.org/1999/xlink" xml:space="preserve"
	x="0px" y="0px" width="27px" height="27px"
>
	<g id="Layer%201">
		<g opacity="0.502">
			<path d="M 10.9688 12.875 L 15.9688 12.875 L 16 14.3125 L 11 14.3125 L 10.9688 12.875 Z" fill="#071d55"/>
			<path d="M 11 15 L 16 15 L 15.9688 16.2813 L 10.9688 16.2813 L 11 15 Z" fill="#071d55"/>
			<path d="M 9.0313 17.7188 L 18.0313 17.7188 L 18 19 L 9 19 L 9.0313 17.7188 Z" fill="#071d55"/>
			<path d="M 16.7813 12 L 18 12 L 18 19 L 16.7813 19 L 16.7813 12 Z" fill="#071d55"/>
			<path d="M 9 8 L 15 8 L 15.0313 9.3125 L 9.0313 9.3125 L 9 8 Z" fill="#071d55"/>
			<path d="M 9 9 L 10.3438 9 L 10.3438 18 L 9 18 L 9 9 Z" fill="#071d55"/>
			<path d="M 15 8 L 16 8 L 16 12 L 15 12 L 15 8 Z" fill="#071d55"/>
			<path d="M 15 11 L 18 11 L 18 12 L 15 12 L 15 11 Z" fill="#071d55"/>
			<path d="M 15 10 L 16 9 L 18 11 L 17 12 L 15 10 Z" fill="#071d55"/>
		</g>
	</g>
</svg>