<?xml version="1.0" encoding="utf-8"?>
<!-- Generator: Adobe Illustrator 16.0.0, SVG Export Plug-In . SVG Version: 6.00 Build 0)  -->
<!DOCTYPE svg PUBLIC "-//W3C//DTD SVG 1.1//EN" "http://www.w3.org/Graphics/SVG/1.1/DTD/svg11.dtd">
<svg version="1.1" id="Untitled-Page_x25_201" xmlns="http://www.w3.org/2000/svg" xmlns:xlink="http://www.w3.org/1999/xlink"
	 x="0px" y="0px" width="27px" height="27px" viewBox="0 0 27 27" enable-background="new 0 0 27 27" xml:space="preserve">
<path fill="none" d="z"/>
<g id="Layer_x25_201">
	<g>
		<path fill="#D98055" d="M10.969,12.875h5L16,14.313h-5L10.969,12.875z"/>
		<path fill="#D98055" d="M11,15h5l-0.031,1.281h-5L11,15z"/>
		<path fill="#D98055" d="M9.031,17.719h9L18,19H9L9.031,17.719z"/>
		<path fill="#D98055" d="M16.781,12H18v7h-1.219V12z"/>
		<path fill="#D98055" d="M9,8h6l0.031,1.313h-6L9,8z"/>
		<path fill="#D98055" d="M9,9h1.344v9H9V9z"/>
		<path fill="#D98055" d="M15,8h1v4h-1V8z"/>
		<path fill="#D98055" d="M15,11h3v1h-3V11z"/>
		<path fill="#D98055" d="M15,10l1-1l2,2l-1,1L15,10z"/>
	</g>
</g>
<path fill="none" d="z"/>
</svg>
